<svg width="37" height="37" viewBox="0 0 37 37" fill="none" xmlns="http://www.w3.org/2000/svg">
<path d="M31.3235 6.13897L19.0456 1.95479C18.8975 1.9042 18.6987 1.87891 18.5 1.87891C18.3013 1.87891 18.1025 1.9042 17.9544 1.95479L5.67647 6.13897C5.37656 6.24014 5.13086 6.58701 5.13086 6.90498V24.3355C5.13086 24.6534 5.33682 25.0726 5.58613 25.2713L18.0411 34.9766C18.1676 35.0741 18.3302 35.1247 18.4964 35.1247C18.6626 35.1247 18.8288 35.0741 18.9517 34.9766L31.4066 25.2713C31.656 25.0762 31.8619 24.657 31.8619 24.3355V6.90498C31.8691 6.58701 31.6234 6.24375 31.3235 6.13897ZM25.0942 12.3105L17.4124 22.8865C17.3584 22.9604 17.2877 23.0206 17.2061 23.062C17.1245 23.1035 17.0342 23.1251 16.9427 23.1251C16.8511 23.1251 16.7609 23.1035 16.6793 23.062C16.5976 23.0206 16.527 22.9604 16.4729 22.8865L11.9058 16.5994C11.7685 16.4079 11.9058 16.1405 12.1406 16.1405H14.1352C14.3194 16.1405 14.4965 16.2309 14.6049 16.379L16.9427 19.5948L22.3951 12.0864C22.5035 11.9383 22.677 11.8479 22.8648 11.8479H24.8594C25.0942 11.8516 25.2315 12.1189 25.0942 12.3105Z" fill="#FE5F55" fill-opacity="0.7"/>
</svg>
