<svg width="20" height="20" viewBox="0 0 20 20" fill="none" xmlns="http://www.w3.org/2000/svg">
<g clip-path="url(#clip0)">
<path d="M10.0541 4.72976C10.7928 4.72976 11.4865 4.85969 12.1351 5.11957C12.7838 5.37944 13.3514 5.74327 13.8378 6.21105C14.3243 6.67882 14.7027 7.22456 14.973 7.84826C15.2432 8.47196 15.3784 9.13897 15.3784 9.8493C15.3784 10.5596 15.2432 11.218 14.973 11.8244C14.7027 12.4307 14.3243 12.9765 13.8378 13.4616C13.3514 13.9467 12.7838 14.3105 12.1351 14.553C11.4865 14.7956 10.7928 14.9342 10.0541 14.9688C9.31532 15.0035 8.62162 14.8649 7.97297 14.553C7.32432 14.2412 6.76577 13.8774 6.2973 13.4616C5.82883 13.0458 5.45045 12.5 5.16216 11.8244C4.87387 11.1487 4.72973 10.4903 4.72973 9.8493C4.72973 9.20827 4.87387 8.54126 5.16216 7.84826C5.45045 7.15526 5.82883 6.60952 6.2973 6.21105C6.76577 5.81257 7.32432 5.44874 7.97297 5.11957C8.62162 4.79039 9.31532 4.66046 10.0541 4.72976ZM10.0541 13.1497C10.5225 13.1497 10.964 13.0631 11.3784 12.8898C11.7928 12.7166 12.1622 12.4827 12.4865 12.1882C12.8108 11.8937 13.0541 11.5385 13.2162 11.1227C13.3784 10.7069 13.4685 10.2824 13.4865 9.8493C13.5045 9.41617 13.4144 8.98305 13.2162 8.54992C13.018 8.1168 12.7748 7.76163 12.4865 7.48443C12.1982 7.20723 11.8288 6.97335 11.3784 6.78277C10.9279 6.5922 10.4865 6.50557 10.0541 6.5229C9.62162 6.54022 9.18018 6.62685 8.72973 6.78277C8.27928 6.9387 7.90991 7.17258 7.62162 7.48443C7.33333 7.79628 7.09009 8.15145 6.89189 8.54992C6.69369 8.9484 6.6036 9.38152 6.62162 9.8493C6.63964 10.3171 6.72973 10.7415 6.89189 11.1227C7.05405 11.5038 7.2973 11.859 7.62162 12.1882C7.94595 12.5174 8.31532 12.7512 8.72973 12.8898C9.14414 13.0284 9.58559 13.1151 10.0541 13.1497ZM20 4.98963C20.1622 8.22941 20.1622 11.4692 20 14.709C19.964 15.3327 19.8108 15.9217 19.5405 16.4761C19.2703 17.0305 18.9189 17.5156 18.4865 17.9314C18.0541 18.3472 17.5405 18.6937 16.9459 18.9709C16.3514 19.2481 15.7387 19.3954 15.1081 19.4127C14.2613 19.4474 13.4234 19.4733 12.5946 19.4907C11.7658 19.508 10.9189 19.5167 10.0541 19.5167C9.18919 19.5167 8.35135 19.508 7.54054 19.4907C6.72973 19.4733 5.88288 19.4474 5 19.4127C4.35135 19.3781 3.73874 19.2308 3.16216 18.9709C2.58559 18.711 2.08108 18.3645 1.64865 17.9314C1.21622 17.4983 0.855856 17.0132 0.567568 16.4761C0.279279 15.939 0.126126 15.35 0.108108 14.709C-0.036036 11.4692 -0.036036 8.22941 0.108108 4.98963C0.144144 4.36593 0.297297 3.77688 0.567568 3.22248C0.837838 2.66808 1.1982 2.17432 1.64865 1.74119C2.0991 1.30807 2.6036 0.970227 3.16216 0.727677C3.72072 0.485127 4.33333 0.337864 5 0.285889C8.36937 0.129964 11.7387 0.129964 15.1081 0.285889C15.7568 0.320539 16.3694 0.467802 16.9459 0.727677C17.5225 0.987552 18.036 1.32539 18.4865 1.74119C18.9369 2.15699 19.2883 2.65075 19.5405 3.22248C19.7928 3.79421 19.9459 4.38326 20 4.98963ZM18.1081 14.605C18.2703 11.4345 18.2703 8.2554 18.1081 5.06759C18.0901 4.68644 17.991 4.32262 17.8108 3.97612C17.6306 3.62962 17.4054 3.31777 17.1351 3.04057C16.8649 2.76337 16.5405 2.53814 16.1622 2.36489C15.7838 2.19164 15.4054 2.09635 15.027 2.07903C14.1982 2.04438 13.3694 2.01839 12.5405 2.00107C11.7117 1.98374 10.8829 1.97508 10.0541 1.97508C9.22523 1.97508 8.3964 1.98374 7.56757 2.00107C6.73874 2.01839 5.90991 2.04438 5.08108 2.07903C4.68468 2.09635 4.30631 2.19164 3.94595 2.36489C3.58559 2.53814 3.27027 2.76337 3 3.04057C2.72973 3.31777 2.4955 3.62962 2.2973 3.97612C2.0991 4.32262 2 4.68644 2 5.06759C1.83784 8.2554 1.83784 11.4432 2 14.631C2.01802 15.0122 2.11712 15.376 2.2973 15.7225C2.47748 16.069 2.71171 16.3722 3 16.632C3.28829 16.8919 3.6036 17.1171 3.94595 17.3077C4.28829 17.4983 4.66667 17.5936 5.08108 17.5936C8.3964 17.7495 11.7117 17.7495 15.027 17.5936C15.4234 17.5763 15.8018 17.481 16.1622 17.3077C16.5225 17.1345 16.8468 16.9092 17.1351 16.632C17.4234 16.3548 17.6486 16.043 17.8108 15.6965C17.973 15.35 18.0721 14.9862 18.1081 14.605ZM15.3784 3.58631C15.7027 3.58631 15.982 3.69892 16.2162 3.92414C16.4505 4.14937 16.5676 4.41791 16.5676 4.72976C16.5676 5.04161 16.4505 5.31014 16.2162 5.53537C15.982 5.76059 15.7027 5.87321 15.3784 5.87321C15.0541 5.87321 14.7748 5.76059 14.5405 5.53537C14.3063 5.31014 14.1892 5.04161 14.1892 4.72976C14.1892 4.41791 14.3063 4.14937 14.5405 3.92414C14.7748 3.69892 15.0541 3.58631 15.3784 3.58631Z" fill="#FE5F55"/>
</g>
<defs>
<clipPath id="clip0">
<rect width="20" height="20" fill="white"/>
</clipPath>
</defs>
</svg>
