<svg width="20" height="20" viewBox="0 0 20 20" fill="none" xmlns="http://www.w3.org/2000/svg">
<g clip-path="url(#clip0)">
<path d="M13.6064 9.04609C13.6183 7.62598 12.4001 6.3239 10.891 6.144L10.7921 6.12973C10.7164 6.11527 10.6396 6.107 10.5625 6.10498C10.2527 6.10498 10.1706 6.32009 10.1488 6.44859C10.1365 6.50195 10.1354 6.55715 10.1456 6.61094C10.1558 6.66472 10.1771 6.716 10.2082 6.76173C10.3111 6.89975 10.4912 6.92354 10.6357 6.94448C10.6783 6.95019 10.7188 6.95495 10.7515 6.96352C12.1082 7.26334 12.5654 7.73639 12.7881 9.07179C12.794 9.1051 12.796 9.14508 12.798 9.18791C12.8078 9.34686 12.8286 9.67904 13.1888 9.67904C13.2185 9.67904 13.2502 9.67714 13.2838 9.67143C13.6193 9.62098 13.6084 9.31736 13.6035 9.17173C13.601 9.13655 13.601 9.10125 13.6035 9.06608C13.6046 9.05978 13.6052 9.05342 13.6055 9.04704L13.6064 9.04609Z" fill="#FE5F55"/>
<path d="M10.4756 5.62218C10.5152 5.62504 10.5548 5.62789 10.5855 5.63265C12.812 5.9734 13.8372 7.0204 14.1212 9.24955C14.1262 9.28762 14.1262 9.33331 14.1272 9.3828C14.1301 9.55698 14.1361 9.91867 14.528 9.92629H14.5398C14.5936 9.92904 14.6474 9.92069 14.6976 9.90182C14.7478 9.88294 14.7932 9.85396 14.8308 9.81683C14.9525 9.69024 14.9446 9.50273 14.9376 9.35044C14.9357 9.31427 14.9337 9.27905 14.9347 9.24859C14.9624 6.969 12.9753 4.90166 10.6814 4.82551L10.6537 4.82646C10.6449 4.82771 10.636 4.82835 10.627 4.82837C10.6043 4.82837 10.5756 4.82646 10.5459 4.82456C10.5064 4.82109 10.4668 4.81918 10.4271 4.81885C10.062 4.81885 9.99269 5.07584 9.98379 5.23003C9.964 5.58506 10.3094 5.61076 10.4756 5.62218ZM14.0134 12.1297C13.9657 12.0938 13.9185 12.0573 13.8719 12.0203C13.6284 11.8261 13.3692 11.6472 13.1198 11.4739C13.0676 11.4379 13.0155 11.4017 12.9634 11.3654C12.6428 11.1427 12.3548 11.0332 12.0827 11.0332C11.7165 11.0332 11.3969 11.235 11.1327 11.6319C11.0159 11.8071 10.8734 11.8927 10.6993 11.8927C10.5777 11.8886 10.4585 11.859 10.3499 11.8061C9.31582 11.3397 8.5766 10.6259 8.15405 9.68357C7.95019 9.2267 8.01551 8.92974 8.37572 8.68702C8.57957 8.54996 8.95957 8.29392 8.93285 7.80374C8.90316 7.24693 7.66519 5.57173 7.14368 5.38137C6.92122 5.30062 6.6759 5.29994 6.45296 5.37947C5.85426 5.57935 5.42379 5.93152 5.20905 6.39505C5.00124 6.84431 5.01113 7.37066 5.23676 7.91891C5.88691 9.50463 6.8003 10.8867 7.95415 12.0269C9.08228 13.1434 10.4697 14.0572 12.0768 14.7444C12.2212 14.8062 12.3736 14.8396 12.4845 14.8643L12.5785 14.8871C12.5914 14.8907 12.6047 14.8926 12.6181 14.8929H12.6309C13.387 14.8929 14.2944 14.2075 14.5735 13.4252C14.8179 12.7399 14.3716 12.402 14.0134 12.1307V12.1297ZM10.8101 7.43348C10.6814 7.43634 10.4113 7.443 10.3163 7.71522C10.2727 7.84276 10.2777 7.95317 10.3321 8.0436C10.4123 8.17685 10.5667 8.21778 10.7062 8.23967C11.2129 8.32057 11.4741 8.59946 11.5256 9.11534C11.5503 9.3571 11.7136 9.52462 11.9234 9.52462C11.9392 9.52494 11.9551 9.52431 11.9709 9.52272C12.2232 9.49226 12.3449 9.30856 12.334 8.97542C12.338 8.62706 12.1549 8.23301 11.8432 7.91891C11.5305 7.60291 11.1535 7.42492 10.8101 7.43348Z" fill="#FE5F55"/>
<path d="M4.06234 1.99884C3.53743 1.99884 3.03402 2.1994 2.66286 2.5564C2.29169 2.9134 2.08317 3.3976 2.08317 3.90247V15.3242C2.08317 15.8291 2.29169 16.3133 2.66286 16.6703C3.03402 17.0273 3.53743 17.2279 4.06234 17.2279H15.9373C16.4622 17.2279 16.9657 17.0273 17.3368 16.6703C17.708 16.3133 17.9165 15.8291 17.9165 15.3242V3.90247C17.9165 3.3976 17.708 2.9134 17.3368 2.5564C16.9657 2.1994 16.4622 1.99884 15.9373 1.99884H4.06234ZM4.06234 0.0952148H15.9373C16.9872 0.0952148 17.994 0.496336 18.7363 1.21033C19.4786 1.92433 19.8957 2.89273 19.8957 3.90247V15.3242C19.8957 16.334 19.4786 17.3024 18.7363 18.0164C17.994 18.7304 16.9872 19.1315 15.9373 19.1315H4.06234C3.01252 19.1315 2.0057 18.7304 1.26337 18.0164C0.521041 17.3024 0.104004 16.334 0.104004 15.3242V3.90247C0.104004 2.89273 0.521041 1.92433 1.26337 1.21033C2.0057 0.496336 3.01252 0.0952148 4.06234 0.0952148Z" fill="#FE5F55"/>
</g>
<defs>
<clipPath id="clip0">
<rect width="20" height="19.5122" fill="white"/>
</clipPath>
</defs>
</svg>
